<svg xmlns="http://www.w3.org/2000/svg" width="25" height="30" fill="#a0a4aa" viewBox="0 0 96 120"><style>.st0{display:none}.st1{display:inline}</style><g class="st0"><path class="st1" d="M80.5 38.4c-.4-3-2.9-5.3-6-5.2l-11.2.9c-.1 0 .1 0 0 0l-1.8-.2c-.6-.1-.9-.7-.7-1.2 2.9-6.4 5.2-12.3 3.2-16.4-1-1.9-2.8-3.3-5.5-3.9-.9-.2-1.7.3-2 1.1 0 .1-1.9 4.7-6.7 11.9l-.3.3c-4.2 2.6-8.1 5.2-10.2 12.5-.1.4-.5.6-.8.6h-4.2c-.5 0-.9-.4-.9-.9v-2.5c0-.5-.4-.9-.9-.9H15.4c-.5 0-.9.4-.9.9v34c0 .5.4.9.9.9h17.2c.5 0 .9-.4.9-.9v-1.6c0-.5.4-.9.9-.9h7.3c.2 0 .4.1.5.2l8.1 6.2c.3.3.7.4 1.1.4h20.8c2.6 0 4.7-1.7 5.2-4.1l1.4-6 2.2-9c0-.1-.1.2 0 0l.4-8.7c0-.1 0 .1 0 0l-.9-7.5zM18.1 65.8v-27c0-.5.4-.9.9-.9h10.3c.5 0 .9.4.9.9l.2 27c0 .5-.4.9-.9.9H19c-.5 0-.9-.4-.9-.9zm56.8-4.5l-7.4.1c-.5 0-.9.4-.9.9v1.8c0 .5.4.9.9.9l6.1-.1c.6 0 1 .5.9 1.1l-.6 2.9c-.2.8-.9 1.4-1.8 1.4H52.3c-.2 0-.4-.1-.5-.2l-8.2-6.2c-.3-.3-.7-.4-1.1-.4h-8.1c-.5 0-.9-.4-.9-.9V43.1c0-.5.4-.9.9-.9h3.7c1 0 1.9 0 2.6-.1.8-.1 1.4-.6 1.6-1.4 1.7-7.7 5-9.7 9.6-12.5l.5-.5c3.2-4.7 5.2-8.4 6.3-10.7.2-.5.9-.7 1.4-.3.3.3.6.6.8 1 1.4 3-1.2 9-3.8 14.7-.2.4-.6.6-1 .5-.5-.1-1 .3-1.1.8l-.3 1.7c-.1.5.3.9.7 1l7.5 1.2h.8l11.1-1c1.1 0 2 .9 2.2 2l.4 4.2c.1.5-.3 1-.9 1l-9.1.1c-.5 0-.9.4-.9.9v1.8c0 .5.4.9.9.9l9.3-.1c.5 0 .9.4.9.9l-.2 3.3c0 .5-.4.8-.9.8l-9.1.1c-.5 0-.9.4-.9.9v1.8c0 .5.4.9.9.9l8.2-.1c.6 0 1 .5.9 1.1l-.9 3.5c.1.4-.3.7-.7.7z"/></g><path d="M15.6 34.5h16.9c.6 0 1 .5 1 1v33.7c0 .6-.5 1-1 1H15.6c-.6 0-1-.5-1-1V35.5c0-.6.4-1 1-1zM80.6 38.4c-.4-3-2.9-5.3-6-5.2l-11.2.9c-.1 0 .1 0 0 0l-1.7-.2c-.6-.1-.9-.7-.7-1.3 2.9-6.4 5.2-12.3 3.2-16.4-1-1.9-2.8-3.3-5.5-3.9-.9-.2-1.7.3-2 1.1 0 .1-1.9 4.7-6.7 11.9l-.3.3c-4.2 2.6-8.1 5.2-10.2 12.5-.1.4-.5.6-.8.6h-1.4c-.5 0-.9.4-.9.9v26.5c0 .5.4.9.9.9h4.4c.2 0 .4.1.5.2l8.1 6.2c.3.3.7.4 1.1.4h20.8c2.4 0 4.6-1.8 5.1-4.1l1.4-6.1s2.2-8.9 2.2-9l.4-8.7-.7-7.5z"/><g class="st0"><path class="st1" d="M80.5 38.4c-.4-3-2.9-5.3-6-5.2l-11.2.8h-.2l-1.5-.2c-.6-.1-.9-.7-.7-1.2 2.9-6.4 5.2-12.3 3.2-16.4-1-1.9-2.8-3.3-5.5-3.9-.9-.2-1.7.3-2 1.1 0 .1-1.9 4.7-6.7 11.9l-.3.3c-4.2 2.6-8.1 5.2-10.2 12.5-.1.4-.5.6-.8.6-1.1 0-3.1-.1-4.3-.1-.5 0-.9-.4-.9-.9v-2.5c0-.5-.4-.9-.9-.9l-17.2.1c-.5 0-.9.4-.9.9v34.1c0 .5.4.9.9.9l17.2-.1c.5 0 .9-.4.9-.9v-1.6c0-.5.4-.9.9-.9l7.4.1c.2 0 .4.1.5.2l8.1 6.2c.3.3.7.4 1.1.4h20.8c2.4 0 4.6-1.8 5.1-4.1l1.4-6.1 2.2-8.6c0-.1 0-.3.1-.4l.4-8.6v-.2l-.9-7.3zm-17 14.3c-.9 0-1.2.1-1.2-2.3 0-2.7.5-2.7 1.2-2.7l13.2-.2c.5 0 .9.4.9.9l-.2 3.3c0 .5-.4.8-.9.8l-13 .2zM77 38.8l.4 4.2c.1.5-.4 1-.9 1H62.4c-.9 0-1.2 0-1.2-2.6 0-1.5.6-3.7 2-3.8 0 0 11.7-.9 11.8-.9.9 0 1.9 1 2 2.1zM18 66.7V38.9c0-.5.4-.9.9-.9h10.3c.5 0 .9.4.9.9l.2 27c0 .5-.4.9-.9.9L18 66.7zm25.6-2.9c-.4-.3-.7-.4-1.1-.4l-8.2-.1c-.5 0-.9-.4-.9-.9V43c0-.5.4-.9.9-.9 1.9 0 5.4.1 6.4 0 .8-.1 1.4-.6 1.6-1.4 1.7-7.7 5-9.7 9.6-12.5.2-.1.4-.4.5-.5 3.2-4.7 5.2-8.4 6.3-10.7.2-.5.9-.7 1.3-.3.4.3.6.6.8 1 1.6 3.2-1.6 9.9-4.4 15.9l-.2.5c-.1.2-.2.4-.2.6-.7 8.8-3.1 12.8-5 14.6-1.2 1.1-2.3 1.5-3 1.7-.4.1-.7.4-.7.9v1.8c0 .6.5 1 1 .9 1.1-.2 3-.8 4.6-2.1 1.7-1.4 3.1-3.5 4.2-6.1.2-.6 1-.8 1.4-.3l.2.2c.2.2.3.6.2.9-.4 1.2-.4 2.5-.4 3.2 0 .8 0 2.2.5 3.4.1.3.1.5-.1.8-.7 1-1 2.4-1 4.3 0 1.3.1 2.3.4 3.2.1.3 0 .6-.1.8-.8 1-1.3 2.7-1.3 4.9 0 .6 0 1.1.1 1.6s-.4 1-.9 1h-4.2c-.2 0-.4-.1-.5-.2l-7.8-6.4zm28.6 6.4H61.8c-.5 0-1.1 0-1.1-2.6 0-2.7.6-2.7 1.1-2.7h11.9c.6 0 1 .5.9 1.1l-.6 2.9c-.3.7-1 1.3-1.8 1.3zm3.4-9.6c-.1.4-.4.6-.8.6l-12.1.2c-.5 0-1.1 0-1.1-2.6s.4-2.6 1.1-2.6l13-.4c.6 0 1 .5.9 1.1l-1 3.7z"/></g><g class="st0"><path class="st1" d="M81.4 49.2s0 .1 0 0l-.4-8.7c-.1-.2 0 .1 0 0l-2.2-9-1.4-6c-.5-2.5-2.6-4.1-5.2-4.1H51.4c-.4 0-.8.1-1.1.4L42.2 28c-.2.1-.3.2-.5.2h-7.3c-.5 0-.9-.4-.9-.9v-1.6c0-.5-.4-.9-.9-.9H15.4c-.5 0-.9.4-.9.9v34c0 .5.4.9.9.9h17.2c.5 0 .9-.4.9-.9v-2.5c0-.5.4-.9.9-.9h4.2c.4 0 .7.3.8.6 2.1 7.3 6 9.9 10.2 12.5l.3.3c4.8 7.2 6.7 11.8 6.7 11.9.4.8 1.1 1.2 2 1.1 2.7-.6 4.6-1.9 5.5-3.9 2-4.2-.3-10.1-3.2-16.4-.2-.5.1-1.1.7-1.2l1.8-.2c.1 0-.1 0 0 0l11.2.9c3.1.1 5.6-2.2 6-5.2l.8-7.5zM19 28.3h10.4c.5 0 .9.4.9.9l-.2 27c0 .5-.4.9-.9.9H19c-.5 0-.9-.4-.9-.9v-27c0-.5.4-.9.9-.9zm56.8 6.1l.9 3.5c.1.6-.3 1.1-.9 1.1l-8.2-.1c-.5 0-.9.4-.9.9v1.8c0 .5.4.9.9.9l9.1.1c.5 0 .8.4.9.8l.2 3.3c0 .5-.4.9-.9.9l-9.3-.1c-.5 0-.9.4-.9.9v1.8c0 .5.4.9.9.9l9.1.1c.5 0 .9.5.9 1l-.6 4c-.2 1.1-1.1 2-2.2 2l-11.1-1h-.8l-7.5 1.2c-.5.1-.8.5-.7 1l.3 1.7c.1.5.6.9 1.1.8.4-.1.8.2 1 .5 2.6 5.7 5.3 11.8 3.8 14.7-.2.4-.5.7-.8 1-.4.4-1.1.2-1.4-.3-1.1-2.3-3.1-6-6.3-10.7-.1-.2-.4-.4-.5-.5C47.4 64 44 62 42.4 54.3c-.2-.8-.8-1.3-1.6-1.4-.7-.1-1.7-.1-2.6-.1h-3.7c-.5 0-.9-.4-.9-.9V32.5c0-.5.4-.9.9-.9h8.1c.4 0 .8-.1 1.1-.4l8.2-6.2c.2-.1.3-.2.5-.2h19.8c.9 0 1.6.6 1.8 1.4l.6 2.9c.1.6-.3 1.1-.9 1.1l-6.1-.1c-.5 0-.9.4-.9.9v1.8c0 .5.4.9.9.9l7.4.1c.3-.1.7.2.8.6z"/></g><g class="st0"><g class="st1"><path d="M14.6 59.5V25.8c0-.6.5-1 1-1h16.9c.6 0 1 .5 1 1v33.7c0 .6-.5 1-1 1H15.6c-.6 0-1-.4-1-1zM81.4 49.2s0 .1 0 0l-.4-8.7c0-.1-2.2-9-2.2-9l-1.4-6.1c-.5-2.4-2.7-4.1-5.1-4.1H51.4c-.4 0-.8.1-1.1.4l-8.1 6.2c-.2.1-.3.2-.5.2h-4.4c-.5 0-.9.4-.9.9v26.5c0 .5.4.9.9.9h1.4c.4 0 .7.3.8.6 2.1 7.3 6 9.9 10.2 12.5l.3.3c4.8 7.2 6.7 11.8 6.7 11.9.4.8 1.1 1.2 2 1.1 2.7-.6 4.6-1.9 5.5-3.9 2-4.1-.3-10-3.2-16.4-.3-.5.1-1.2.7-1.3l1.7-.2c.1 0-.1 0 0 0l11.2.9c3.1.1 5.6-2.2 6-5.2l.8-7.5z"/></g></g><g class="st0"><path class="st1" d="M81.5 49.2V49l-.5-8.5c-.1-.1-.1-.3-.1-.4l-2.2-8.6-1.4-6.1c-.5-2.4-2.7-4.1-5.1-4.1H51.4c-.4 0-.8.1-1.1.4l-8.1 6.2c-.2.1-.3.2-.5.2l-7.4.1c-.5 0-.9-.4-.9-.9v-1.6c0-.5-.4-.9-.9-.9l-17.2-.1c-.5 0-.9.4-.9.9v34.1c0 .5.4.9.9.9l17.2.1c.5 0 .9-.4.9-.9v-2.5c0-.5.4-.9.9-.9 1.2 0 3.1-.1 4.3-.1.4 0 .7.3.8.6 2.1 7.3 6 9.9 10.2 12.5l.3.3c4.8 7.2 6.7 11.8 6.7 11.9.4.8 1.1 1.2 2 1.1 2.7-.6 4.6-1.9 5.5-3.9 2-4.1-.3-10-3.2-16.4-.2-.5.1-1.2.7-1.2l1.5-.2h.2l11.3.9c3.1.1 5.6-2.2 6-5.2l.9-7.5zm-4.9-6.6c.5 0 .8.4.9.8l.2 3.3c0 .5-.4.9-.9.9l-13.2-.2c-.7 0-1.2 0-1.2-2.7 0-2.5.4-2.3 1.2-2.3l13 .2zM75 58.2c-.1 0-11.8-.9-11.8-.9-1.4-.1-2-2.3-2-3.8 0-2.6.4-2.6 1.2-2.6h14.2c.5 0 .9.4.9 1l-.5 4.3c-.1 1.1-1.1 2.1-2 2zm-57-30h11.4c.5 0 .9.4.9.9l-.2 27c0 .5-.4.9-.9.9H18.9c-.5 0-.9-.4-.9-.9V28.2zM51.7 25c.2-.1.3-.2.5-.2h4.2c.5 0 .9.4.9 1-.1.5-.1 1-.1 1.6 0 2.2.4 3.8 1.3 4.9.2.2.2.5.1.8-.3.8-.4 1.9-.4 3.2 0 1.9.3 3.3 1 4.3.2.2.2.5.1.8-.5 1.2-.5 2.7-.5 3.4s0 2 .4 3.2c.1.3 0 .6-.2.9l-.2.2c-.4.5-1.2.3-1.4-.3-1.1-2.6-2.5-4.6-4.2-6.1-1.6-1.4-3.4-1.9-4.6-2.1-.5-.1-1 .3-1 .9V43c0 .4.3.8.7.9.7.2 1.8.6 3 1.7 1.9 1.8 4.3 5.8 5 14.6 0 .3.1.4.2.6l.2.5c2.8 6 6 12.8 4.4 15.9-.2.4-.5.8-.8 1-.4.4-1.1.2-1.3-.3-1.1-2.3-3.1-6-6.3-10.7-.1-.2-.4-.4-.5-.5-4.6-2.8-7.9-4.8-9.6-12.5-.2-.8-.8-1.3-1.6-1.4-1-.1-4.5 0-6.4 0-.5 0-.9-.4-.9-.9V32.5c0-.5.4-.9.9-.9l8.2-.1c.4 0 .7-.1 1.1-.4l7.8-6.1zm22.2 1.2l.6 2.9c.1.5-.3 1.1-.9 1.1H61.8c-.4 0-1.1 0-1.1-2.7 0-2.6.5-2.6 1.1-2.6h10.5c.7-.1 1.4.5 1.6 1.3zm2.7 11.7c.2.6-.3 1.1-.9 1.1l-13-.4c-.6 0-1.1 0-1.1-2.6s.5-2.6 1.1-2.6l12.1.2c.4 0 .7.3.8.6l1 3.7z"/></g><g class="st0"><path class="st1" d="M14.6 45.8s0-.1 0 0l.4 8.7c.1.2 0-.1 0 0l2.2 9 1.4 6c.5 2.5 2.6 4.1 5.2 4.1h20.8c.4 0 .8-.1 1.1-.4l8.1-6.2c.2-.1.3-.2.5-.2h7.3c.5 0 .9.4.9.9v1.6c0 .5.4.9.9.9h17.2c.5 0 .9-.4.9-.9v-34c0-.5-.4-.9-.9-.9H63.4c-.5 0-.9.4-.9.9v2.5c0 .5-.4.9-.9.9h-4.2c-.4 0-.7-.3-.8-.6-2.1-7.3-6-9.9-10.2-12.5l-.3-.3c-4.8-7.2-6.7-11.8-6.7-11.9-.4-.8-1.1-1.2-2-1.1-2.7.6-4.6 1.9-5.5 3.9-2 4.2.3 10.1 3.2 16.4.2.5-.1 1.1-.7 1.2l-1.8.2c-.1 0 .1 0 0 0l-11.2-.9c-3.1-.1-5.6 2.2-6 5.2l-.8 7.5zM77 66.7H66.6c-.5 0-.9-.4-.9-.9l.2-27c0-.5.4-.9.9-.9H77c.5 0 .9.4.9.9v27c0 .5-.4.9-.9.9zm-56.8-6.1l-.9-3.5c-.1-.6.3-1.1.9-1.1l8.2.1c.5 0 .9-.4.9-.9v-1.8c0-.5-.4-.9-.9-.9l-9.1-.1c-.5 0-.8-.4-.9-.8l-.2-3.3c0-.5.4-.9.9-.9l9.3.1c.5 0 .9-.4.9-.9v-1.8c0-.5-.4-.9-.9-.9l-9 .1c-.5 0-.9-.5-.9-1l.4-4.2c.2-1.1 1.1-2 2.2-2l11.1 1h.8l7.5-1.2c.5-.1.8-.5.7-1l-.2-1.8c-.1-.5-.6-.9-1.1-.8-.4.1-.8-.2-1-.5-2.6-5.7-5.3-11.8-3.8-14.7.2-.4.5-.7.8-1 .4-.4 1.1-.2 1.4.3 1.1 2.3 3.1 6 6.3 10.7.1.2.4.4.5.5C48.6 31 52 33 53.6 40.7c.2.8.8 1.3 1.6 1.4.7.1 1.7.1 2.6.1h3.7c.5 0 .9.4.9.9v19.4c0 .5-.4.9-.9.9h-8.1c-.4 0-.8.1-1.1.4L44.2 70c-.2.1-.3.2-.5.2H23.8c-.9 0-1.6-.6-1.8-1.4l-.6-2.9c-.1-.6.3-1.1.9-1.1l6.1.1c.5 0 .9-.4.9-.9v-1.8c0-.5-.4-.9-.9-.9l-7.4-.1c-.3.1-.7-.2-.8-.6z"/></g><g class="st0"><g class="st1"><path d="M81.4 35.5v33.7c0 .6-.5 1-1 1H63.5c-.6 0-1-.5-1-1V35.5c0-.6.5-1 1-1h16.9c.6 0 1 .4 1 1zM14.6 45.8s0-.1 0 0l.4 8.7c0 .1 2.2 9 2.2 9l1.4 6.1c.5 2.4 2.7 4.1 5.1 4.1h20.8c.4 0 .8-.1 1.1-.4l8.1-6.2c.2-.1.3-.2.5-.2h4.4c.5 0 .9-.4.9-.9V39.6c0-.5-.4-.9-.9-.9h-1.4c-.4 0-.7-.3-.8-.6-2.1-7.3-6-9.9-10.2-12.5l-.3-.3c-4.8-7.2-6.7-11.8-6.7-11.9-.4-.8-1.1-1.2-2-1.1-2.7.6-4.6 1.9-5.5 3.9-2 4.1.3 10 3.2 16.4.3.5-.1 1.2-.7 1.3l-1.7.2c-.1 0 .1 0 0 0l-11.2-.9c-3.1-.1-5.6 2.2-6 5.2l-.7 7.4z"/></g></g><g class="st0"><path class="st1" d="M14.5 45.8v.2l.4 8.6c.1.1.1.3.1.4l2.2 8.6 1.4 6.1c.5 2.4 2.7 4.1 5.1 4.1h20.8c.4 0 .8-.1 1.1-.4l8.1-6.2c.2-.1.3-.2.5-.2l7.4-.1c.5 0 .9.4.9.9v1.6c0 .5.4.9.9.9l17.2.1c.5 0 .9-.4.9-.9V35.4c0-.5-.4-.9-.9-.9l-17.2-.1c-.5 0-.9.4-.9.9v2.5c0 .5-.4.9-.9.9-1.2 0-3.1.1-4.3.1-.4 0-.7-.3-.8-.6-2.1-7.3-6-9.9-10.2-12.5l-.3-.3c-4.8-7.2-6.7-11.8-6.7-11.9-.4-.8-1.1-1.2-2-1.1-2.7.6-4.6 1.9-5.5 3.9-2 4.1.3 10 3.2 16.4.2.5-.1 1.2-.7 1.2l-1.4.1h-.2l-11.3-.9c-3.1-.1-5.6 2.2-6 5.2l-.9 7.5zm4.9 6.6c-.5 0-.8-.4-.9-.8l-.2-3.3c0-.5.4-.9.9-.9l13.2.2c.7 0 1.2 0 1.2 2.7 0 2.5-.4 2.3-1.2 2.3l-13-.2zM21 36.8c.1 0 11.8.9 11.8.9 1.4.1 2 2.3 2 3.8 0 2.6-.4 2.6-1.2 2.6H19.5c-.5 0-.9-.4-.9-1l.4-4.2c.1-1.2 1.1-2.2 2-2.1zm57 30H66.6c-.5 0-.9-.4-.9-.9l.2-27c0-.5.4-.9.9-.9h10.3c.5 0 .9.4.9.9v27.9zM44.3 70c-.2.1-.3.2-.5.2h-4.2c-.5 0-.9-.4-.9-1 .1-.5.1-1 .1-1.6 0-2.2-.4-3.8-1.3-4.9-.2-.2-.2-.5-.1-.8.3-.8.4-1.9.4-3.2 0-1.9-.3-3.3-1-4.3-.2-.2-.2-.5-.1-.8.5-1.2.5-2.7.5-3.4s0-2-.4-3.2c-.1-.3 0-.6.2-.9l.2-.2c.4-.5 1.2-.3 1.4.3 1.1 2.6 2.5 4.6 4.2 6.1 1.6 1.4 3.4 1.9 4.6 2.1.5.1 1-.3 1-.9V52c0-.4-.3-.8-.7-.9-.7-.2-1.8-.6-3-1.7-1.9-1.8-4.3-5.8-5-14.6 0-.3-.1-.4-.2-.6l-.2-.5c-2.8-6-6-12.8-4.4-15.9.2-.4.5-.8.8-1 .4-.4 1.1-.2 1.3.3 1.1 2.3 3.1 6 6.3 10.7.1.2.4.4.5.5 4.6 2.8 7.9 4.8 9.6 12.5.2.8.8 1.3 1.6 1.4 1 .1 4.5 0 6.4 0 .5 0 .9.4.9.9v19.4c0 .5-.4.9-.9.9l-8.2.1c-.4 0-.7.1-1.1.4L44.3 70zm-22.2-1.2l-.6-2.9c-.1-.5.3-1.1.9-1.1h11.9c.4 0 1.1 0 1.1 2.7 0 2.6-.5 2.6-1.1 2.6H23.8c-.8.1-1.5-.5-1.7-1.3zm-2.7-11.7c-.2-.6.3-1.1.9-1.1l13 .4c.6 0 1.1 0 1.1 2.6s-.5 2.6-1.1 2.6l-12.1-.2c-.4 0-.7-.3-.8-.6l-1-3.7z"/></g><g class="st0"><path class="st1" d="M15.5 56.6c.4 3 2.9 5.3 6 5.2l11.2-.9c.1 0-.1 0 0 0l1.8.2c.6.1.9.7.7 1.2-2.9 6.4-5.2 12.3-3.2 16.4 1 1.9 2.8 3.3 5.5 3.9.9.2 1.7-.3 2-1.1 0-.1 1.9-4.7 6.7-11.9l.3-.3c4.2-2.6 8.1-5.2 10.2-12.5.1-.4.5-.6.8-.6h4.2c.5 0 .9.4.9.9v2.5c0 .5.4.9.9.9h17.2c.5 0 .9-.4.9-.9v-34c0-.5-.4-.9-.9-.9H63.4c-.5 0-.9.4-.9.9v1.6c0 .5-.4.9-.9.9h-7.3c-.2 0-.4-.1-.5-.2l-8.1-6.2c-.3-.3-.7-.4-1.1-.4H23.8c-2.6 0-4.7 1.7-5.2 4.1l-1.4 6-2.2 9c0 .1.1-.2 0 0l-.4 8.7c0 .1 0-.1 0 0l.9 7.5zm62.4-27.4v27c0 .5-.4.9-.9.9H66.8c-.5 0-.9-.4-.9-.9l-.2-27c0-.5.4-.9.9-.9H77c.5 0 .9.4.9.9zm-56.8 4.5l7.4-.1c.5 0 .9-.4.9-.9v-1.8c0-.5-.4-.9-.9-.9l-6.1.1c-.6 0-1-.5-.9-1.1l.6-2.9c.2-.8.9-1.4 1.8-1.4h19.8c.2 0 .4.1.5.2l8.2 6.2c.3.3.7.4 1.1.4h8.1c.5 0 .9.4.9.9v19.4c0 .5-.4.9-.9.9h-3.7c-1 0-1.9 0-2.6.1-.8.1-1.4.6-1.6 1.4-1.7 7.7-5 9.7-9.6 12.5l-.5.5c-3.2 4.7-5.2 8.4-6.3 10.7-.2.5-.9.7-1.4.3-.3-.3-.6-.6-.8-1-1.4-3 1.2-9 3.8-14.7.2-.4.6-.6 1-.5.5.1 1-.3 1.1-.8l.3-1.7c.1-.5-.3-.9-.7-1L33 57.3h-.8l-11.1 1c-1.1 0-2-.9-2.2-2l-.4-4.3c-.1-.5.3-1 .9-1l9.1-.1c.5 0 .9-.4.9-.9v-1.8c0-.5-.4-.9-.9-.9l-9.3.1c-.5 0-.9-.4-.9-.9l.2-3.3c0-.5.4-.8.9-.8l9.1-.1c.5 0 .9-.4.9-.9v-1.8c0-.5-.4-.9-.9-.9l-8.3.3c-.6 0-1-.5-.9-1.1l.9-3.5c.1-.4.5-.7.9-.7z"/></g><g class="st0"><g class="st1"><path d="M80.4 60.5H63.5c-.6 0-1-.5-1-1V25.8c0-.6.5-1 1-1h16.9c.6 0 1 .5 1 1v33.7c0 .6-.4 1-1 1zM15.4 56.6c.4 3 2.9 5.3 6 5.2l11.2-.9c.1 0-.1 0 0 0l1.7.2c.6.1.9.7.7 1.3-2.9 6.4-5.2 12.3-3.2 16.4 1 1.9 2.8 3.3 5.5 3.9.9.2 1.7-.3 2-1.1 0-.1 1.9-4.7 6.7-11.9l.3-.3c4.2-2.6 8.1-5.2 10.2-12.5.1-.4.5-.6.8-.6h1.4c.5 0 .9-.4.9-.9V28.9c0-.5-.4-.9-.9-.9h-4.4c-.2 0-.4-.1-.5-.2l-8.1-6.2c-.3-.3-.7-.4-1.1-.4H23.8c-2.4 0-4.6 1.8-5.1 4.1l-1.4 6.1s-2.2 8.9-2.2 9l-.4 8.7.7 7.5z"/></g></g><g class="st0"><path class="st1" d="M15.5 56.6c.4 3 2.9 5.3 6 5.2l11.2-.8h.2l1.5.2c.6.1.9.7.7 1.2-2.9 6.4-5.2 12.3-3.2 16.4 1 1.9 2.8 3.3 5.5 3.9.9.2 1.7-.3 2-1.1 0-.1 1.9-4.7 6.7-11.9l.3-.3c4.2-2.6 8.1-5.2 10.2-12.5.1-.4.5-.6.8-.6 1.1 0 3.1.1 4.3.1.5 0 .9.4.9.9v2.5c0 .5.4.9.9.9l17.2-.1c.5 0 .9-.4.9-.9V25.6c0-.5-.4-.9-.9-.9l-17.2.1c-.5 0-.9.4-.9.9v1.6c0 .5-.4.9-.9.9l-7.4-.1c-.2 0-.4-.1-.5-.2l-8.1-6.2c-.3-.3-.7-.4-1.1-.4H23.8c-2.4 0-4.6 1.8-5.1 4.1l-1.4 6.1-2.2 8.6c0 .1 0 .3-.1.4l-.4 8.6v.2l.9 7.3zm17-14.3c.9 0 1.2-.1 1.2 2.3 0 2.7-.5 2.7-1.2 2.7l-13.2.2c-.5 0-.9-.4-.9-.9l.2-3.3c0-.5.4-.8.9-.8l13-.2zM19 56.2l-.4-4.2c-.1-.5.4-1 .9-1h14.2c.9 0 1.2 0 1.2 2.6 0 1.5-.6 3.7-2 3.8 0 0-11.7.9-11.8.9-1 0-2-1-2.1-2.1zm59-27.9v27.8c0 .5-.4.9-.9.9H66.8c-.5 0-.9-.4-.9-.9l-.2-27c0-.5.4-.9.9-.9l11.4.1zm-25.6 2.9c.4.3.7.4 1.1.4l8.2.1c.5 0 .9.4.9.9V52c0 .5-.4.9-.9.9-1.9 0-5.4-.1-6.4 0-.8.1-1.4.6-1.6 1.4-1.7 7.7-5 9.7-9.6 12.5-.2.1-.4.4-.5.5-3.2 4.7-5.2 8.4-6.3 10.7-.2.5-.9.7-1.3.3-.4-.3-.6-.6-.8-1-1.6-3.2 1.6-9.9 4.4-15.9l.2-.5c.1-.2.2-.4.2-.6.7-8.8 3.1-12.8 5-14.6 1.2-1.1 2.3-1.5 3-1.7.4-.1.7-.4.7-.9v-1.8c0-.6-.5-1-1-.9-1.1.2-3 .8-4.6 2.1-1.7 1.4-3.1 3.5-4.2 6.1-.2.6-1 .8-1.4.3l-.2-.2c-.2-.2-.3-.6-.2-.9.4-1.2.4-2.5.4-3.2 0-.8 0-2.2-.5-3.4-.1-.3-.1-.5.1-.8.7-1 1-2.4 1-4.3 0-1.3-.1-2.3-.4-3.2-.1-.3 0-.6.1-.8.8-1 1.3-2.7 1.3-4.9 0-.6 0-1.1-.1-1.6s.4-1 .9-1h4.2c.2 0 .4.1.5.2l7.8 6.4zm-28.6-6.4h10.5c.5 0 1.1 0 1.1 2.6 0 2.7-.6 2.7-1.1 2.7h-12c-.6 0-1-.5-.9-1.1l.6-2.9c.3-.7 1-1.3 1.8-1.3zm-3.4 9.6c.1-.4.4-.6.8-.6l12.1-.2c.5 0 1.1 0 1.1 2.6s-.4 2.6-1.1 2.6l-13 .4c-.6 0-1-.5-.9-1.1l1-3.7z"/></g></svg>